<svg xmlns="http://www.w3.org/2000/svg" xmlns:xlink="http://www.w3.org/1999/xlink" width="100" zoomAndPan="magnify" viewBox="0 0 75 74.999997" height="100" preserveAspectRatio="xMidYMid meet" version="1.0"><defs><g/></defs><path stroke-linecap="butt" transform="matrix(0.75, 0, 0, 0.75, 0.0000015, -0.000001)" fill="none" stroke-linejoin="miter" d="M -0.000002 0.00000133333 L 100 0.00000133333 L 100 100.000003 L -0.000002 100.000003 L -0.000002 0.00000133333 " stroke="#ffffff" stroke-width="10" stroke-opacity="1" stroke-miterlimit="4"/><g fill="#ffffff" fill-opacity="1"><g transform="translate(11.542969, 50.324997)"><g><path d="M 22.363281 0 L 29.765625 0 L 18.425781 -31.5 L 10.65625 -31.5 L -0.683594 0 L 6.71875 0 L 8.664062 -5.933594 L 20.421875 -5.933594 Z M 10.5 -11.707031 L 14.542969 -24.203125 L 18.585938 -11.707031 Z M 10.5 -11.707031 "/></g></g></g><g fill="#ffffff" fill-opacity="1"><g transform="translate(40.627943, 50.324997)"><g><path d="M 22.3125 -25.410156 L 22.3125 -31.5 L 3.359375 -31.5 L 3.359375 0 L 10.289062 0 L 10.289062 -12.703125 L 20.578125 -12.703125 L 20.578125 -18.796875 L 10.289062 -18.796875 L 10.289062 -25.410156 Z M 22.3125 -25.410156 "/></g></g></g></svg>